<?xml version="1.0" standalone="no"?>
<!DOCTYPE svg PUBLIC "-//W3C//DTD SVG 20010904//EN"
 "http://www.w3.org/TR/2001/REC-SVG-20010904/DTD/svg10.dtd">
<svg version="1.0" xmlns="http://www.w3.org/2000/svg"
 width="703.000000pt" height="1280.000000pt" viewBox="0 0 703.000000 1280.000000"
 preserveAspectRatio="xMidYMid meet">
<metadata>
Created by potrace 1.15, written by Peter Selinger 2001-2017
</metadata>
<g transform="translate(0.000000,1280.000000) scale(0.100000,-0.100000)"
fill="#000000" stroke="none">
<path d="M4406 12185 c-401 -167 -735 -310 -742 -317 -9 -8 -36 -155 -70 -373
l-56 -360 -180 -385 c-1231 -2629 -2050 -4301 -2771 -5654 -140 -263 -178
-342 -170 -355 9 -16 92 -78 240 -181 l71 -50 79 16 c43 9 86 20 95 25 40 21
512 887 952 1747 393 768 1147 2328 1569 3250 33 72 61 131 63 129 1 -1 -4
-115 -12 -252 -35 -635 -86 -1713 -145 -3065 -6 -140 -12 -256 -13 -257 -1 -1
-29 9 -62 22 -375 152 -805 28 -1099 -315 -92 -107 -146 -191 -210 -325 -139
-288 -204 -604 -204 -980 1 -319 50 -525 187 -783 69 -131 164 -254 307 -398
164 -165 249 -234 599 -484 l258 -184 -7 -71 c-22 -233 -102 -751 -156 -1014
-89 -431 -214 -754 -307 -793 -15 -7 -55 -39 -89 -72 l-63 -60 0 -123 0 -123
72 -60 c40 -33 82 -60 93 -60 39 0 2360 542 2373 555 11 10 19 194 38 861 13
467 24 883 24 925 l0 76 178 131 c97 72 215 160 262 194 558 415 799 770 864
1276 20 152 20 265 0 456 -30 297 -85 505 -189 721 -64 133 -132 235 -223 335
-147 161 -308 264 -509 324 -58 18 -248 40 -269 32 -9 -4 -14 2 -14 17 0 35
118 4330 125 4527 3 96 12 427 20 735 8 308 17 637 20 730 4 94 3 178 0 188
-9 22 -161 127 -183 126 -9 0 -345 -137 -746 -304z m-1226 -6456 c25 -6 62
-15 84 -20 l39 -11 -7 -161 c-41 -983 -142 -2487 -167 -2487 -10 0 -273 165
-424 266 -473 316 -681 622 -711 1048 -6 87 9 327 26 411 81 401 255 679 531
847 178 108 427 150 629 107z m2095 -13 c296 -58 511 -213 668 -483 121 -208
187 -483 187 -776 0 -154 -12 -238 -54 -373 -75 -243 -268 -473 -581 -695 -75
-53 -403 -269 -408 -269 -2 0 70 2602 72 2608 2 5 51 0 116 -12z"/>
</g>
</svg>
